# xmcd
#
# Track frame offsets:
#	183
#	10858
#	21933
#	33483
#	45620
#	57495
#	64370
#	79445
#	89858
#	101470
#	112733
#	123970
#	132670
#	147220
#	156883
#	168520
#	178845
#	190758
#	201533
#	215245
#
# Disc length: 2985 seconds
#
# Revision: 1
# Processed by: cddbd v1.4PL0 Copyright (c) Steve Scherf et al.
# Submitted via: audiograbber 1.80.04
#
DISCID=320ba714
DTITLE=Waylon Jennings and Willie Nelson - The Outlaws
DYEAR=1990
DGENRE=Country
TTITLE0=Blame It All The Times
TTITLE1=Big Mamou
TTITLE2=December Day's
TTITLE3=Don't Think Twice It's Allright
TTITLE4=End Of An Understanding
TTITLE5=It's So Easy
TTITLE6=Face Of A Fighter
TTITLE7=White Lightning
TTITLE8=Is There Something On Your Mind
TTITLE9=Sally Was A Good Old Girl
TTITLE10=Suffering Of Silence
TTITLE11=Loves's Gonna Live Here
TTITLE12=Will You Remember Me
TTITLE13=When Sin Stops
TTITLE14=Some Other Time
TTITLE15=Money (That's Wat I Want)
TTITLE16=I Hope So
TTITLE17=Dream Baby
TTITLE18=Everything But You
TTITLE19=Julie Blond
EXTD=
EXTT0=
EXTT1=
EXTT2=
EXTT3=
EXTT4=
EXTT5=
EXTT6=
EXTT7=
EXTT8=
EXTT9=
EXTT10=
EXTT11=
EXTT12=
EXTT13=
EXTT14=
EXTT15=
EXTT16=
EXTT17=
EXTT18=
EXTT19=
PLAYORDER=
